<mxfile host="app.diagrams.net" modified="2022-12-04T07:25:47.676Z" agent="5.0 (Windows NT 10.0; Win64; x64) AppleWebKit/537.36 (KHTML, like Gecko) Chrome/108.0.0.0 Safari/537.36" version="20.6.0" etag="mTYeNkqgIGhlfICPiFG-" type="github">
  <diagram id="iF_u6nbzlKa738Vq_7Uv" name="第 1 页">
    <mxGraphModel dx="1865" dy="547" grid="1" gridSize="10" guides="1" tooltips="1" connect="1" arrows="1" fold="1" page="1" pageScale="1" pageWidth="827" pageHeight="1169" math="1" shadow="0">
      <root>
        <mxCell id="0" />
        <mxCell id="1" parent="0" />
        <mxCell id="DBZ_cNUDWz9hHCTft2EA-2" value="" style="rounded=0;whiteSpace=wrap;html=1;" vertex="1" parent="1">
          <mxGeometry x="160" y="200" width="60" height="120" as="geometry" />
        </mxCell>
        <mxCell id="DBZ_cNUDWz9hHCTft2EA-3" value="$$\mathcal{A} \ni \mathcal{a}_{(x,y,z)}$$" style="text;html=1;strokeColor=none;fillColor=none;align=center;verticalAlign=middle;whiteSpace=wrap;rounded=0;" vertex="1" parent="1">
          <mxGeometry x="10" y="245" width="60" height="30" as="geometry" />
        </mxCell>
        <mxCell id="DBZ_cNUDWz9hHCTft2EA-4" value="" style="endArrow=classic;html=1;rounded=0;" edge="1" parent="1">
          <mxGeometry width="50" height="50" relative="1" as="geometry">
            <mxPoint x="80" y="259.8" as="sourcePoint" />
            <mxPoint x="150" y="259.8" as="targetPoint" />
          </mxGeometry>
        </mxCell>
        <mxCell id="DBZ_cNUDWz9hHCTft2EA-6" value="Discretization" style="text;html=1;strokeColor=none;fillColor=none;align=center;verticalAlign=middle;whiteSpace=wrap;rounded=0;" vertex="1" parent="1">
          <mxGeometry x="80" y="230" width="60" height="30" as="geometry" />
        </mxCell>
        <mxCell id="DBZ_cNUDWz9hHCTft2EA-7" value="$$\mathcal{A} \ni \mathcal{a}_{(x,y,z)}$$" style="text;html=1;strokeColor=none;fillColor=none;align=center;verticalAlign=middle;whiteSpace=wrap;rounded=0;" vertex="1" parent="1">
          <mxGeometry x="10" y="245" width="60" height="30" as="geometry" />
        </mxCell>
        <mxCell id="DBZ_cNUDWz9hHCTft2EA-8" value="$$ \mathcal{a}_{(x_1,y_1,z_1)}$$" style="text;html=1;strokeColor=none;fillColor=none;align=center;verticalAlign=middle;whiteSpace=wrap;rounded=0;" vertex="1" parent="1">
          <mxGeometry x="160" y="200" width="60" height="30" as="geometry" />
        </mxCell>
        <mxCell id="DBZ_cNUDWz9hHCTft2EA-9" value="$$ \mathcal{a}_{(x_2,y_2,z_2)}$$" style="text;html=1;strokeColor=none;fillColor=none;align=center;verticalAlign=middle;whiteSpace=wrap;rounded=0;" vertex="1" parent="1">
          <mxGeometry x="160" y="230" width="60" height="30" as="geometry" />
        </mxCell>
        <mxCell id="DBZ_cNUDWz9hHCTft2EA-10" value="$$ \mathcal{a}_{(x_m,y_m,z_m)}$$" style="text;html=1;strokeColor=none;fillColor=none;align=center;verticalAlign=middle;whiteSpace=wrap;rounded=0;" vertex="1" parent="1">
          <mxGeometry x="160" y="290" width="60" height="30" as="geometry" />
        </mxCell>
        <mxCell id="DBZ_cNUDWz9hHCTft2EA-11" value="$$ \cdots$$" style="text;html=1;strokeColor=none;fillColor=none;align=center;verticalAlign=middle;whiteSpace=wrap;rounded=0;" vertex="1" parent="1">
          <mxGeometry x="160" y="260" width="60" height="30" as="geometry" />
        </mxCell>
        <mxCell id="DBZ_cNUDWz9hHCTft2EA-13" value="" style="endArrow=classic;html=1;rounded=0;" edge="1" parent="1">
          <mxGeometry width="50" height="50" relative="1" as="geometry">
            <mxPoint x="230" y="260" as="sourcePoint" />
            <mxPoint x="300" y="260" as="targetPoint" />
          </mxGeometry>
        </mxCell>
        <mxCell id="DBZ_cNUDWz9hHCTft2EA-14" value="" style="shape=trapezoid;perimeter=trapezoidPerimeter;whiteSpace=wrap;html=1;fixedSize=1;rotation=-90;" vertex="1" parent="1">
          <mxGeometry x="270" y="240" width="120" height="40" as="geometry" />
        </mxCell>
        <mxCell id="DBZ_cNUDWz9hHCTft2EA-15" value="Branch Net" style="text;html=1;strokeColor=none;fillColor=none;align=center;verticalAlign=middle;whiteSpace=wrap;rounded=0;" vertex="1" parent="1">
          <mxGeometry x="300" y="320" width="70" height="30" as="geometry" />
        </mxCell>
        <mxCell id="DBZ_cNUDWz9hHCTft2EA-17" value="" style="endArrow=classic;html=1;rounded=0;" edge="1" parent="1">
          <mxGeometry width="50" height="50" relative="1" as="geometry">
            <mxPoint x="360" y="259.52" as="sourcePoint" />
            <mxPoint x="430" y="259.52" as="targetPoint" />
          </mxGeometry>
        </mxCell>
        <mxCell id="DBZ_cNUDWz9hHCTft2EA-18" value="" style="rounded=0;whiteSpace=wrap;html=1;" vertex="1" parent="1">
          <mxGeometry x="440" y="200" width="60" height="120" as="geometry" />
        </mxCell>
        <mxCell id="DBZ_cNUDWz9hHCTft2EA-19" value="$$ b_1$$" style="text;html=1;strokeColor=none;fillColor=none;align=center;verticalAlign=middle;whiteSpace=wrap;rounded=0;" vertex="1" parent="1">
          <mxGeometry x="440" y="200" width="60" height="30" as="geometry" />
        </mxCell>
        <mxCell id="DBZ_cNUDWz9hHCTft2EA-20" value="$$ b_2$$" style="text;html=1;strokeColor=none;fillColor=none;align=center;verticalAlign=middle;whiteSpace=wrap;rounded=0;" vertex="1" parent="1">
          <mxGeometry x="440" y="230" width="60" height="30" as="geometry" />
        </mxCell>
        <mxCell id="DBZ_cNUDWz9hHCTft2EA-21" value="$$b_p$$" style="text;html=1;strokeColor=none;fillColor=none;align=center;verticalAlign=middle;whiteSpace=wrap;rounded=0;" vertex="1" parent="1">
          <mxGeometry x="440" y="290" width="60" height="30" as="geometry" />
        </mxCell>
        <mxCell id="DBZ_cNUDWz9hHCTft2EA-22" value="$$ \cdots$$" style="text;html=1;strokeColor=none;fillColor=none;align=center;verticalAlign=middle;whiteSpace=wrap;rounded=0;" vertex="1" parent="1">
          <mxGeometry x="440" y="260" width="60" height="30" as="geometry" />
        </mxCell>
        <mxCell id="DBZ_cNUDWz9hHCTft2EA-24" value="$$(x,y,z,t)$$" style="text;html=1;strokeColor=none;fillColor=none;align=center;verticalAlign=middle;whiteSpace=wrap;rounded=0;" vertex="1" parent="1">
          <mxGeometry x="160" y="425" width="60" height="30" as="geometry" />
        </mxCell>
        <mxCell id="DBZ_cNUDWz9hHCTft2EA-25" value="" style="endArrow=classic;html=1;rounded=0;" edge="1" parent="1">
          <mxGeometry width="50" height="50" relative="1" as="geometry">
            <mxPoint x="220.0000000000001" y="439.66" as="sourcePoint" />
            <mxPoint x="290.0000000000001" y="439.66" as="targetPoint" />
          </mxGeometry>
        </mxCell>
        <mxCell id="DBZ_cNUDWz9hHCTft2EA-26" value="" style="shape=trapezoid;perimeter=trapezoidPerimeter;whiteSpace=wrap;html=1;fixedSize=1;rotation=-90;" vertex="1" parent="1">
          <mxGeometry x="275" y="420" width="120" height="40" as="geometry" />
        </mxCell>
        <mxCell id="DBZ_cNUDWz9hHCTft2EA-27" value="Trunk Net" style="text;html=1;strokeColor=none;fillColor=none;align=center;verticalAlign=middle;whiteSpace=wrap;rounded=0;" vertex="1" parent="1">
          <mxGeometry x="305" y="500" width="70" height="30" as="geometry" />
        </mxCell>
        <mxCell id="DBZ_cNUDWz9hHCTft2EA-33" value="" style="endArrow=classic;html=1;rounded=0;" edge="1" parent="1">
          <mxGeometry width="50" height="50" relative="1" as="geometry">
            <mxPoint x="360" y="439.65999999999997" as="sourcePoint" />
            <mxPoint x="430" y="439.65999999999997" as="targetPoint" />
          </mxGeometry>
        </mxCell>
        <mxCell id="DBZ_cNUDWz9hHCTft2EA-34" value="" style="rounded=0;whiteSpace=wrap;html=1;" vertex="1" parent="1">
          <mxGeometry x="440" y="385" width="60" height="120" as="geometry" />
        </mxCell>
        <mxCell id="DBZ_cNUDWz9hHCTft2EA-35" value="$$ t_1$$" style="text;html=1;strokeColor=none;fillColor=none;align=center;verticalAlign=middle;whiteSpace=wrap;rounded=0;" vertex="1" parent="1">
          <mxGeometry x="440" y="385" width="60" height="30" as="geometry" />
        </mxCell>
        <mxCell id="DBZ_cNUDWz9hHCTft2EA-36" value="$$ t_2$$" style="text;html=1;strokeColor=none;fillColor=none;align=center;verticalAlign=middle;whiteSpace=wrap;rounded=0;" vertex="1" parent="1">
          <mxGeometry x="440" y="415" width="60" height="30" as="geometry" />
        </mxCell>
        <mxCell id="DBZ_cNUDWz9hHCTft2EA-37" value="$$t_p$$" style="text;html=1;strokeColor=none;fillColor=none;align=center;verticalAlign=middle;whiteSpace=wrap;rounded=0;" vertex="1" parent="1">
          <mxGeometry x="440" y="475" width="60" height="30" as="geometry" />
        </mxCell>
        <mxCell id="DBZ_cNUDWz9hHCTft2EA-38" value="$$ \cdots$$" style="text;html=1;strokeColor=none;fillColor=none;align=center;verticalAlign=middle;whiteSpace=wrap;rounded=0;" vertex="1" parent="1">
          <mxGeometry x="440" y="445" width="60" height="30" as="geometry" />
        </mxCell>
        <mxCell id="DBZ_cNUDWz9hHCTft2EA-39" value="" style="endArrow=classic;html=1;rounded=0;entryX=0;entryY=0.5;entryDx=0;entryDy=0;" edge="1" parent="1" target="DBZ_cNUDWz9hHCTft2EA-41">
          <mxGeometry width="50" height="50" relative="1" as="geometry">
            <mxPoint x="510" y="259.31" as="sourcePoint" />
            <mxPoint x="580" y="259.31" as="targetPoint" />
          </mxGeometry>
        </mxCell>
        <mxCell id="DBZ_cNUDWz9hHCTft2EA-44" value="" style="rounded=0;whiteSpace=wrap;html=1;fillColor=none;strokeColor=#FF3333;strokeWidth=3;" vertex="1" parent="1">
          <mxGeometry x="-10" y="170" width="540" height="180" as="geometry" />
        </mxCell>
        <mxCell id="DBZ_cNUDWz9hHCTft2EA-40" value="" style="endArrow=classic;html=1;rounded=0;entryX=0;entryY=0.5;entryDx=0;entryDy=0;" edge="1" parent="1" target="DBZ_cNUDWz9hHCTft2EA-41">
          <mxGeometry width="50" height="50" relative="1" as="geometry">
            <mxPoint x="510" y="439.66" as="sourcePoint" />
            <mxPoint x="580" y="439.66" as="targetPoint" />
          </mxGeometry>
        </mxCell>
        <mxCell id="DBZ_cNUDWz9hHCTft2EA-41" value="" style="shape=sumEllipse;perimeter=ellipsePerimeter;whiteSpace=wrap;html=1;backgroundOutline=1;" vertex="1" parent="1">
          <mxGeometry x="550" y="330" width="20" height="20" as="geometry" />
        </mxCell>
        <mxCell id="DBZ_cNUDWz9hHCTft2EA-42" value="" style="endArrow=classic;html=1;rounded=0;" edge="1" parent="1">
          <mxGeometry width="50" height="50" relative="1" as="geometry">
            <mxPoint x="580" y="339.65999999999997" as="sourcePoint" />
            <mxPoint x="650" y="339.65999999999997" as="targetPoint" />
          </mxGeometry>
        </mxCell>
        <mxCell id="DBZ_cNUDWz9hHCTft2EA-43" value="$$\mathcal{u}_{(x,y,z,t)} \in \mathcal{U}$$" style="text;html=1;strokeColor=none;fillColor=none;align=center;verticalAlign=middle;whiteSpace=wrap;rounded=0;" vertex="1" parent="1">
          <mxGeometry x="660" y="325" width="70" height="30" as="geometry" />
        </mxCell>
        <mxCell id="DBZ_cNUDWz9hHCTft2EA-45" value="" style="rounded=0;whiteSpace=wrap;html=1;fillColor=none;strokeColor=#006633;strokeWidth=3;" vertex="1" parent="1">
          <mxGeometry x="150" y="370" width="380" height="180" as="geometry" />
        </mxCell>
      </root>
    </mxGraphModel>
  </diagram>
</mxfile>
